<?xml version="1.0" encoding="utf-8"?>
<!-- Generator: Adobe Illustrator 25.1.0, SVG Export Plug-In . SVG Version: 6.00 Build 0)  -->
<svg version="1.1" id="Layer_1" xmlns="http://www.w3.org/2000/svg" xmlns:xlink="http://www.w3.org/1999/xlink" x="0px" y="0px"
	 viewBox="0 0 350 217.7" style="enable-background:new 0 0 350 217.7;" xml:space="preserve">
<style type="text/css">
	.st0{fill:#FFFFFF;}
	.st1{opacity:0.8;}
	.st2{font-family:'Staatliches-Regular';}
	.st3{font-size:60px;}
	.st4{letter-spacing:-1;}
	.st5{letter-spacing:-3;}
</style>
<g id="Layer_2_1_">
	<path class="st0" d="M283.6,84.9c-4.4,0-8.8,0.4-13.1,1.3c-5.9-29.4-34.5-48.4-63.8-42.5c-4.2,0.8-8.2,2.2-12.1,4
		c-13.6-37.6-55.1-57.1-92.7-43.5S44.8,59.3,58.4,96.9c0,0.1,0.1,0.1,0.1,0.2c-33.3,1.6-59,29.9-57.4,63.2
		c1.5,31.7,27.4,56.8,59.2,57.4h223.4c36.7-0.5,66-30.5,65.6-67.2C348.7,114.5,319.6,85.4,283.6,84.9z"/>
</g>
<g id="Layer_1_1_" class="st1">
	<text transform="matrix(1 0 0 1 86.72 123.4)" class="st2 st3 st4">Y</text>
	<text transform="matrix(1 0 0 1 108.8 123.4)" class="st2 st3">o</text>
	<text transform="matrix(1 0 0 1 136.58 123.4)" class="st2 st3">ur </text>
	<text transform="matrix(1 0 0 1 86.72 195.4)" class="st2 st3">W</text>
	<text transform="matrix(1 0 0 1 124.46 195.4)" class="st2 st3">e</text>
	<text transform="matrix(1 0 0 1 149.06 195.4)" class="st2 st3 st5">a</text>
	<text transform="matrix(1 0 0 1 171.8 195.4)" class="st2 st3">ther</text>
</g>
</svg>
